<svg
  viewBox="142.819 117.712 1310.343 326.48"
  preserveAspectRatio="xMidYMid meet"
  xmlns="http://www.w3.org/2000/svg"
  role="presentation" aria-hidden="true">
    <g>
      <!-- Static text elements -->
        <path fill="#23275c" d="m758.492 158.091-22.996 17.18c-8.796-10.935-20.612-18.932-34.521-21.666-43.132-8.476-80.513 19.776-88.203 61.977-9.536 52.329 21.941 100.582 78.149 97.596 20.4-1.084 36.609-10.838 48.753-26.833l22.801 17.052c-3.903 6.626-10.588 12.55-16.835 17.111-58.4 42.649-141.119 10.238-159.921-58.222-21.694-78.986 42.793-151.071 124.085-133.753 18.694 3.982 37.442 13.841 48.689 29.557Z"></path>
        <path fill="#23275c" d="M815.168 117.712v101.67c1.996-2.546 3.194-5.355 5.337-7.898 26.743-31.735 88.753-16.955 88.962 28.561l.005 94.005h-25.55l.019-80.102c-.035-20.626-10.888-35.83-32.792-35.054-23.744.842-34.672 18.652-36 40.625l.019 74.531h-26.015V117.712z"></path>
        <path fill="#23275c" d="M1452.994 275.555h-108.705c.486 5.956 1.336 11.22 4.095 16.567 8.435 16.344 30.387 25.017 48.104 22.367 12.074-1.806 23.836-9.957 30.501-19.899l19.957 15.088c-17.501 22.594-47.079 31.398-74.881 26.559-60.01-10.446-74.363-92.971-27.465-127.918 23.069-17.191 61.053-18.671 83.992-.53 19.959 15.784 25.672 43.427 24.402 67.767Zm-108.007-20.426h80.599c-.301-14.045-5.182-27.674-17.977-34.727-24.298-13.394-58.472 1.505-62.806 29.437-.16 1.031-.731 5.02.184 5.29"></path>
        <path fill="#23275c" d="M1009.72 194.914c43.716-2.954 78.934 33.281 76.3 76.715-3.495 57.643-74.765 86.1-118.485 49.196-50.03-42.23-22.859-121.515 42.185-125.911m0 24.141c-56.456 4.037-54.257 98.461 8.684 94.099 19.661-1.363 34.422-14.809 38.567-33.881 7.153-32.916-11.486-62.776-47.251-60.219Z"></path>
        <path fill="#23275c" d="M1300.319 313.925c.712.687 3.06 1.706 2.421 2.944-.594 1.151-6.107 5.88-7.474 6.955-20.711 16.291-56.031 17.775-79.041 5.664-47.099-24.792-48.191-99.003-1.858-125.042 26.251-14.753 63.505-12.186 85.795 8.662.783.732 3.52 3.004 3.04 3.947l-19.141 17.144c-.743.133-4.135-3.832-5.056-4.59-13.716-11.297-34.315-13.974-49.888-4.851-18.309 10.725-24.299 35.634-19.699 55.359 8.04 34.48 52.331 44.715 75.176 18.195 5.253 5.189 10.412 10.49 15.724 15.613Z"></path>
        <path fill="#23275c" d="M1146.392 198.491v134.863l-.697.696h-25.318V198.491z"></path>
        <path fill="#23275c" d="M1132.84 130.821c24.263-.716 25.948 36.8 1.258 37.975-25.255 1.202-26.602-37.226-1.258-37.975"></path>
        <path stroke-miterlimit="10" stroke="#23275c" fill="#23275c" d="M650.881 408.742q-1.8-2.34-4.56-3.6-2.761-1.26-5.7-1.26-3.6 0-6.51 1.35t-4.98 3.69-3.209 5.49q-1.141 3.15-1.141 6.75 0 3.36 1.08 6.36t3.12 5.28q2.04 2.281 4.979 3.6 2.94 1.32 6.66 1.32 3.66 0 6.42-1.5t4.68-4.2l4.86 3.66q-.48.661-1.68 1.89-1.2 1.23-3.181 2.46-1.978 1.23-4.77 2.16-2.79.93-6.45.93-5.04 0-9.09-1.92-4.051-1.92-6.899-5.04a22 22 0 0 1-4.351-7.05q-1.5-3.93-1.5-7.95 0-4.92 1.62-9.09t4.53-7.2 6.989-4.71q4.082-1.68 9-1.68 4.2 0 8.25 1.62t6.631 4.98l-4.801 3.66Z"></path>
        <path stroke-miterlimit="10" stroke="#23275c" fill="#23275c" d="M697.022 443.123q-4.86 0-8.94-1.71t-6.99-4.71-4.56-7.08-1.65-8.82c0-4.74.55-6.099 1.65-8.82q1.65-4.08 4.56-7.08t6.99-4.71 8.94-1.71c4.86 0 6.219.57 8.939 1.71q4.08 1.71 6.99 4.71 2.908 3 4.561 7.08 1.65 4.082 1.649 8.82c-.001 4.738-.55 6.1-1.649 8.82q-1.652 4.08-4.561 7.08-2.912 3-6.99 4.71-4.08 1.71-8.939 1.71Zm0-5.401q3.658 0 6.6-1.35 2.938-1.35 5.04-3.63 2.099-2.28 3.239-5.37t1.141-6.57c.001-3.48-.381-4.509-1.141-6.57q-1.14-3.09-3.239-5.37-2.101-2.28-5.04-3.63t-6.6-1.35c-3.66 0-4.641.45-6.601 1.35q-2.94 1.35-5.04 3.63t-3.24 5.37-1.14 6.57c0 3.479.38 4.51 1.14 6.57q1.14 3.09 3.24 5.37t5.04 3.63 6.601 1.35Z"></path>
        <path stroke-miterlimit="10" stroke="#23275c" fill="#23275c" d="M741 399.563h8.58l13.5 32.16h.24l13.38-32.16h8.579v42.48h-5.76v-34.92h-.119l-14.34 34.92h-3.841l-14.34-34.92h-.12v34.92h-5.76v-42.48Z"></path>
        <path stroke-miterlimit="10" stroke="#23275c" fill="#23275c" d="M809.34 399.563h8.58l13.5 32.16h.239l13.38-32.16h8.58v42.48h-5.76v-34.92h-.12l-14.34 34.92h-3.841l-14.34-34.92h-.119v34.92h-5.76z"></path>
        <path stroke-miterlimit="10" stroke="#23275c" fill="#23275c" d="M883.079 399.563v26.04q0 1.98.54 4.11t1.8 3.93 3.3 2.94q2.038 1.14 5.041 1.14c3.003 0 3.68-.38 5.039-1.14q2.04-1.14 3.301-2.94 1.26-1.8 1.799-3.93.541-2.13.541-4.11v-26.04h5.76v26.94q0 3.722-1.26 6.75-1.26 3.03-3.48 5.25a15.4 15.4 0 0 1-5.22 3.42q-3.002 1.2-6.479 1.2c-3.477 0-4.48-.4-6.48-1.2a15.4 15.4 0 0 1-5.221-3.42q-2.22-2.22-3.479-5.25-1.26-3.028-1.26-6.75v-26.94h5.76Z"></path>
        <path stroke-miterlimit="10" stroke="#23275c" fill="#23275c" d="M934.319 399.563h7.561l23.4 34.92h.119v-34.92h5.76v42.48h-7.319l-23.64-34.92h-.12v34.92h-5.761z"></path>
        <path stroke-miterlimit="10" stroke="#23275c" fill="#23275c" d="M996.059 399.563h5.76v42.48h-5.76z"></path>
        <path stroke-miterlimit="10" stroke="#23275c" fill="#23275c" d="M1035.598 404.962h-13.68v-5.4h33.12v5.4h-13.68v37.08h-5.761z"></path>
        <path stroke-miterlimit="10" stroke="#23275c" fill="#23275c" d="m1085.158 423.922-16.08-24.36h7.38l11.58 18.66 11.939-18.66h7.021l-16.079 24.36v18.12h-5.761z"></path>
        <path stroke-miterlimit="10" stroke="#23275c" fill="#23275c" d="M1156.498 399.563h5.76v17.64h22.02v-17.64h5.76v42.48h-5.76v-19.44h-22.02v19.44h-5.76z"></path>
        <path stroke-miterlimit="10" stroke="#23275c" fill="#23275c" d="M1214.938 399.563h27.42v5.4h-21.66v12.66h20.16v5.4h-20.16v13.62h22.74v5.4h-28.5z"></path>
        <path stroke-miterlimit="10" stroke="#23275c" fill="#23275c" d="M1278.897 399.563h5.221l18.18 42.48h-6.721l-4.26-10.5h-20.22l-4.2 10.5h-6.72zm10.32 26.939-7.92-19.5h-.12l-8.04 19.5z"></path>
        <path stroke-miterlimit="10" stroke="#23275c" fill="#23275c" d="M1321.797 399.563h5.76v37.08h19.5v5.4h-25.26z"></path>
        <path stroke-miterlimit="10" stroke="#23275c" fill="#23275c" d="M1370.277 404.962h-13.68v-5.4h33.12v5.4h-13.68v37.08h-5.761v-37.08Z"></path>
        <path stroke-miterlimit="10" stroke="#23275c" fill="#23275c" d="M1409.817 399.563h5.76v17.64h22.02v-17.64h5.76v42.48h-5.76v-19.44h-22.02v19.44h-5.76z"></path>
      <!-- Heart and arrows group -->
      <g>
        <path fill="#fdde80" d="m172.393 216.198-19.266 8.95-10.308-21.784 62.979-28.482 25.142 63.523-22.812 9.089-8.976-21.508c-17.503 39.963-15.863 101.859 27.057 146.992 23.101 24.292 51.422 38.446 84.882 41.879 33.405 3.427 63.78-4.973 91.44-23.998l20.485 21.321c-6.064 3.776-11.839 7.596-17.821 11.056-17.343 10.031-36.091 16.118-55.833 19.157-14.669 2.258-29.394 2.313-44.146.601-24.078-2.793-46.395-10.606-66.905-23.453-26.009-16.291-45.979-38.164-59.841-65.55-7.633-15.081-12.736-31.017-15.398-47.688-2.45-15.34-2.739-30.751-.974-46.214 1.621-14.193 4.916-27.971 9.577-41.448.223-.646.387-1.312.718-2.444Z"></path>
        <path fill="#fdde80" d="m244.841 171.815-20.479-21.325c6.272-3.88 12.248-7.834 18.462-11.368 15.793-8.984 32.753-14.792 50.614-18.041 13.012-2.367 26.149-3.184 39.309-2.312 34.866 2.31 66.092 14.263 93.166 36.443 29.075 23.82 47.772 54.201 56.341 90.769 3.562 15.203 4.767 30.655 3.946 46.229-.94 17.825-4.635 35.128-10.503 51.976-.221.635-.387 1.289-.694 2.327l19.281-8.947 9.903 22.19-62.167 28.053-25.135-63.507 22.814-9.088 8.519 21.399c16.178-35.362 17.317-97.965-25.25-145.078-42.223-46.732-118.535-61.908-178.126-19.722Z"></path>
        <path fill="#fdde80" d="M320.679 374.17a2.545 2.545 0 0 0 3.31.027l71.114-59.906.05-.04c11.9-9.69 19.6-25.13 19.6-42.53 0-29.34-21.9-53.12-48.91-53.12-16.67 0-31.387 9.052-40.215 22.876-.988 1.547-3.263 1.547-4.251 0-8.829-13.824-23.554-22.876-40.214-22.876-27.01 0-48.91 23.78-48.91 53.12 0 16.36 6.81 30.99 17.52 40.74z"></path>
      </g>
    </g>
</svg>